<?xml version="1.0" standalone="no"?>
<!DOCTYPE svg PUBLIC "-//W3C//DTD SVG 20010904//EN"
 "http://www.w3.org/TR/2001/REC-SVG-20010904/DTD/svg10.dtd">
<svg version="1.0" xmlns="http://www.w3.org/2000/svg"
 width="553.000000pt" height="553.000000pt" viewBox="0 0 553.000000 553.000000"
 preserveAspectRatio="xMidYMid meet">
<metadata>
Created by potrace 1.14, written by Peter Selinger 2001-2017
</metadata>
<g transform="translate(0.000000,553.000000) scale(0.100000,-0.100000)"
fill="#000000" stroke="none">
<path d="M140 5471 c-18 -33 -56 -89 -86 -125 l-54 -65 0 -2017 0 -2016 51
-48 52 -48 -5 -56 c-4 -47 -11 -64 -51 -115 l-47 -59 0 -461 0 -461 1251 0
1252 0 -5 83 -5 82 46 55 46 55 -73 -65 c-41 -36 -80 -64 -88 -64 -7 1 -12 -2
-9 -6 7 -11 -22 -33 -34 -26 -5 4 -13 1 -17 -5 -5 -8 -3 -9 6 -4 9 5 11 4 6
-4 -4 -6 -12 -9 -17 -6 -5 4 -21 -2 -37 -13 -47 -33 -110 -62 -136 -62 -51 0
-57 26 -72 322 -8 160 -24 350 -39 458 -50 364 -55 405 -55 465 0 90 29 138
180 298 163 174 216 245 284 377 74 146 103 223 144 385 33 134 35 147 33 306
-1 141 -6 197 -37 375 -19 115 -38 223 -41 240 -7 42 19 67 61 59 42 -9 166
-67 220 -104 25 -17 48 -31 51 -31 4 0 16 -10 27 -22 11 -13 16 -16 12 -8 -10
20 23 -7 120 -100 l79 -75 -51 65 c-28 36 -74 110 -102 165 -93 186 -136 223
-372 326 -128 56 -134 59 -238 122 -61 36 -89 47 -150 56 -41 6 -111 16 -155
22 -154 23 -162 23 -202 -2 -32 -20 -60 -25 -205 -35 -92 -7 -218 -22 -279
-34 -91 -17 -114 -19 -120 -8 -16 24 -9 39 26 59 19 12 35 23 35 25 0 7 -64
-9 -134 -33 -38 -12 -71 -21 -74 -18 -2 2 -11 -3 -19 -11 -9 -8 -22 -13 -29
-10 -8 3 -14 0 -14 -6 0 -6 -3 -9 -6 -5 -4 3 -13 -1 -21 -9 -8 -8 -19 -12 -24
-9 -5 4 -9 1 -9 -5 0 -6 -4 -8 -10 -5 -5 3 -10 1 -10 -5 0 -6 -4 -8 -10 -5 -5
3 -10 2 -10 -3 0 -5 -14 -12 -31 -16 -17 -3 -28 -10 -24 -16 4 -6 3 -9 -2 -8
-16 4 -53 -14 -47 -23 3 -5 2 -9 -3 -8 -21 4 -34 -2 -27 -13 4 -6 3 -8 -3 -5
-12 8 -79 -40 -75 -54 1 -5 -2 -8 -7 -7 -15 5 -86 -58 -143 -129 -101 -123
-154 -227 -183 -358 -7 -33 -14 -48 -14 -34 -1 38 36 153 74 229 67 134 194
271 341 371 135 91 431 220 471 205 9 -4 11 -2 7 6 -5 7 1 9 19 6 16 -3 24 -1
20 5 -4 6 4 8 20 5 16 -3 24 -1 20 5 -3 6 6 8 25 5 18 -3 29 0 25 5 -3 6 7 8
25 5 17 -2 29 -1 26 3 -6 10 101 23 121 15 10 -4 14 -2 9 5 -4 8 9 10 44 8 27
-2 49 -1 47 2 -10 15 194 34 360 33 161 -1 195 -4 329 -32 164 -35 205 -37 74
-4 -132 33 -250 50 -429 63 -144 10 -190 9 -335 -5 -156 -16 -311 -42 -392
-65 -18 -6 -40 -7 -48 -4 -8 3 -14 1 -14 -5 0 -6 -10 -8 -22 -4 -14 3 -19 1
-14 -6 4 -7 2 -10 -6 -7 -8 3 -33 -1 -57 -10 -57 -20 -64 -18 -21 5 29 16 31
19 10 15 -14 -2 -26 -4 -27 -6 -2 -1 -7 -3 -13 -4 -5 -1 -13 -4 -17 -5 -5 -1
-11 -2 -15 -1 -5 0 -8 -4 -8 -11 0 -6 -3 -9 -6 -5 -8 8 -64 -13 -64 -25 0 -5
-4 -7 -10 -3 -16 10 -292 -134 -284 -148 4 -6 -3 -3 -15 8 -21 18 -21 19 -3
26 10 4 26 18 35 32 21 32 146 133 261 210 50 33 94 65 98 71 5 7 8 7 8 1 0
-6 3 -6 8 1 4 6 16 16 27 23 l20 12 -20 -4 c-11 -3 -29 -8 -40 -12 -44 -16 50
37 108 60 123 51 430 128 574 144 46 6 56 9 29 10 -99 3 -557 -92 -660 -137
-51 -23 -328 -207 -411 -272 -78 -62 -220 -209 -275 -284 -137 -187 -209 -409
-197 -601 3 -48 2 -66 -3 -45 -6 29 -8 31 -9 9 -2 -48 38 -179 79 -257 45 -87
128 -187 222 -269 77 -67 100 -81 91 -56 -4 10 18 -4 48 -31 120 -108 267
-183 457 -233 82 -21 120 -25 242 -25 158 0 201 3 193 14 -4 8 12 12 30 9 5
-1 6 3 2 9 -5 9 7 14 27 11 3 0 31 27 62 60 41 44 60 74 71 114 17 57 12 130
-8 118 -6 -3 -7 -1 -3 6 8 13 -2 52 -12 48 -4 -1 -29 22 -56 51 -38 40 -76 66
-154 105 -102 50 -108 52 -186 51 -136 -2 -291 -57 -443 -156 -103 -67 -170
-98 -213 -97 -32 0 -33 1 -13 11 21 10 19 12 -28 35 -57 29 -107 83 -154 168
-37 66 -75 183 -74 224 0 14 7 -3 15 -39 30 -143 139 -301 229 -336 48 -18
122 -13 109 8 -4 6 -3 8 4 4 14 -9 63 14 55 27 -3 6 -2 8 3 4 13 -8 86 38 76
48 -4 4 -2 5 5 1 7 -4 21 2 32 13 11 11 22 17 25 13 3 -3 6 1 6 8 0 7 3 11 6
8 3 -4 15 3 26 14 12 12 28 18 40 15 11 -3 17 -3 14 1 -4 3 8 14 26 24 l33 17
-42 1 c-29 0 -73 -13 -135 -41 -130 -57 -134 -57 -40 -4 46 25 125 59 175 75
189 59 273 83 297 82 14 0 87 -30 163 -66 75 -36 137 -63 137 -61 0 3 -45 27
-99 55 -92 45 -131 77 -131 106 0 17 188 -78 259 -131 114 -87 180 -203 187
-332 3 -57 2 -73 -6 -58 -8 16 -9 12 -4 -18 4 -28 2 -37 -6 -32 -9 5 -10 1 -5
-15 4 -14 3 -20 -3 -16 -5 3 -15 -8 -22 -24 -14 -35 -65 -88 -172 -183 -98
-86 -119 -94 -201 -73 -34 8 -114 20 -179 26 -136 12 -276 45 -370 88 -37 16
-69 28 -72 24 -3 -3 -6 0 -6 7 0 9 6 11 18 5 46 -21 184 -63 224 -69 70 -11
69 11 -2 31 -35 10 -57 21 -53 27 3 6 1 7 -6 3 -16 -10 -53 3 -45 16 4 6 -1 8
-16 3 -17 -5 -21 -4 -15 6 6 9 3 11 -8 6 -10 -4 -17 -2 -17 4 0 6 -7 8 -16 5
-10 -4 -13 -2 -8 6 5 8 2 9 -10 5 -11 -5 -15 -3 -10 5 5 8 2 9 -10 5 -11 -5
-15 -3 -10 5 5 8 2 9 -10 5 -9 -4 -15 -3 -12 2 7 11 -22 23 -36 14 -7 -3 -8
-1 -4 5 8 13 -30 36 -44 27 -6 -4 -9 -1 -8 7 2 7 -5 12 -14 12 -10 -1 -16 3
-15 10 1 6 -6 10 -15 10 -10 -1 -16 2 -13 6 3 4 -21 27 -53 51 -140 104 -286
268 -345 385 -60 119 -72 177 -71 344 0 142 2 162 28 240 58 174 151 323 298
475 54 56 94 106 90 110 -4 5 -1 5 6 1 16 -10 54 22 45 38 -3 6 -3 8 2 4 12
-11 47 11 39 25 -4 7 -4 9 1 5 10 -9 47 10 40 21 -2 5 3 8 13 7 9 0 16 4 15
11 -2 7 3 10 11 7 8 -3 17 0 22 7 5 8 3 10 -6 4 -8 -5 -11 -4 -6 3 4 6 13 9
20 6 8 -3 17 0 22 7 4 8 3 10 -4 5 -7 -4 -12 -5 -12 -3 0 12 73 47 83 41 7 -4
9 -3 4 1 -9 11 103 86 117 78 6 -3 8 -3 4 2 -9 10 28 38 40 31 5 -3 9 1 9 8 0
29 -71 11 -142 -36 -39 -25 -86 -53 -105 -63 -19 -10 -55 -31 -79 -48 -24 -17
-41 -25 -38 -19 4 5 64 48 135 95 70 46 138 97 152 112 38 41 68 52 166 64 49
6 121 19 159 30 85 23 72 27 -20 6 -80 -19 -152 -22 -168 -6 -8 8 -4 11 15 11
14 0 70 22 124 49 155 77 312 119 501 136 62 6 79 12 117 41 26 19 50 48 57
68 11 30 18 35 63 44 50 9 49 9 -44 12 -85 2 -215 15 -182 19 20 2 4 21 -18
21 -57 0 -126 24 -157 55 -29 29 -33 40 -33 84 0 66 46 209 122 381 51 113
148 385 148 412 0 4 -382 8 -849 8 l-850 0 -31 -59z m880 -1336 c0 -19 -86
-93 -163 -142 -438 -273 -682 -601 -728 -974 -51 -423 185 -791 661 -1029 165
-82 290 -119 498 -144 133 -17 191 -35 112 -36 -25 0 -67 -7 -95 -16 -96 -29
-298 13 -470 98 -181 90 -410 274 -524 421 -156 203 -230 462 -203 706 43 373
310 733 747 1004 50 31 106 70 125 86 37 32 40 34 40 26z m-300 -259 c0 -2 -8
-10 -17 -17 -16 -13 -17 -12 -4 4 13 16 21 21 21 13z m-40 -29 c0 -2 -10 -12
-22 -23 l-23 -19 19 23 c18 21 26 27 26 19z m-70 -60 c0 -2 -13 -16 -29 -31
-21 -20 -31 -24 -36 -15 -5 7 -4 10 2 6 6 -4 21 5 33 18 22 23 30 29 30 22z
m-120 -121 c0 -2 -8 -10 -17 -17 -16 -13 -17 -12 -4 4 13 16 21 21 21 13z
m-83 -863 c-2 -21 -4 -6 -4 32 0 39 2 55 4 38 2 -18 2 -50 0 -70z m-150 -45
c-3 -8 -6 -5 -6 6 -1 11 2 17 5 13 3 -3 4 -12 1 -19z m1043 -36 c0 -23 -35
-51 -82 -65 -29 -8 -87 -25 -128 -37 -41 -12 -117 -42 -169 -66 -91 -43 -141
-55 -141 -34 0 6 10 14 23 19 13 5 55 29 93 54 111 71 247 118 392 136 6 0 12
-2 12 -7z m212 -239 c193 -91 261 -213 188 -339 -32 -56 -67 -90 -138 -132
-44 -25 -55 -27 -177 -28 -71 -1 -115 0 -97 3 47 6 39 23 -10 23 -24 0 -76 9
-116 19 -40 11 -73 19 -75 19 -1 0 -15 5 -30 11 -16 6 -31 11 -34 11 -4 0 -38
14 -77 32 -80 36 -136 86 -136 120 0 51 181 187 310 233 46 17 51 18 110 34
l35 9 -35 2 -35 2 40 13 c24 9 70 13 115 11 63 -2 88 -9 162 -43z m-709 -10
c-7 -2 -19 -2 -25 0 -7 3 -2 5 12 5 14 0 19 -2 13 -5z m-302 -260 c13 -16 12
-17 -3 -4 -10 7 -18 15 -18 17 0 8 8 3 21 -13z m1359 -122 c0 -16 -74 -107
-120 -147 -30 -26 -21 -13 27 38 39 42 74 85 78 97 6 21 15 28 15 12z m-180
-24 c0 -2 -15 -16 -32 -33 l-33 -29 29 33 c28 30 36 37 36 29z"/>
<path d="M1318 2503 c7 -3 16 -2 19 1 4 3 -2 6 -13 5 -11 0 -14 -3 -6 -6z"/>
<path d="M1221 2414 c-137 -29 -291 -127 -291 -184 0 -52 88 -101 243 -135 88
-20 288 -18 322 3 17 10 12 11 -28 5 -27 -3 -57 -1 -70 5 -12 6 -63 13 -113
15 -50 2 -100 9 -110 15 -15 9 -15 12 -4 13 8 1 18 1 21 1 3 -1 2 20 -2 46 -4
26 -8 69 -8 95 -1 27 -5 46 -9 43 -4 -2 -14 -1 -22 4 -17 11 44 29 125 37 33
3 63 11 67 16 3 6 30 10 60 10 l53 -2 -40 14 c-51 17 -113 17 -194 -1z"/>
<path d="M1571 2355 c47 -52 59 -75 59 -121 0 -69 -55 -129 -153 -165 -40 -14
-44 -17 -17 -13 83 15 173 91 186 159 8 46 -27 117 -76 153 l-35 26 36 -39z"/>
<path d="M2143 4533 c9 -2 25 -2 35 0 9 3 1 5 -18 5 -19 0 -27 -2 -17 -5z"/>
<path d="M1428 4213 c7 -3 16 -2 19 1 4 3 -2 6 -13 5 -11 0 -14 -3 -6 -6z"/>
<path d="M1958 4163 c23 -2 59 -2 80 0 20 2 1 4 -43 4 -44 0 -61 -2 -37 -4z"/>
<path d="M2143 4153 c9 -2 23 -2 30 0 6 3 -1 5 -18 5 -16 0 -22 -2 -12 -5z"/>
<path d="M2228 4143 c7 -3 16 -2 19 1 4 3 -2 6 -13 5 -11 0 -14 -3 -6 -6z"/>
<path d="M2298 4133 c7 -3 16 -2 19 1 4 3 -2 6 -13 5 -11 0 -14 -3 -6 -6z"/>
<path d="M2348 4123 c7 -3 16 -2 19 1 4 3 -2 6 -13 5 -11 0 -14 -3 -6 -6z"/>
<path d="M1725 4053 c-168 -21 -466 -103 -575 -158 -48 -25 -100 -68 -100 -84
0 -10 0 -10 140 32 136 42 385 94 515 109 66 7 216 13 332 13 117 0 201 3 187
7 -14 4 -32 12 -39 18 -17 15 -292 9 -493 -10 -94 -9 -137 -9 -144 -2 -15 15
73 39 182 51 84 9 382 -1 427 -14 18 -6 21 -4 17 13 -5 16 -18 20 -81 26 -78
6 -315 6 -368 -1z"/>
<path d="M2575 3770 c11 -5 27 -9 35 -9 9 0 8 4 -5 9 -11 5 -27 9 -35 9 -9 0
-8 -4 5 -9z"/>
<path d="M4373 3468 c-40 -44 -83 -109 -122 -186 -45 -90 -56 -86 -154 48 -10
14 -8 7 4 -15 13 -22 30 -50 40 -63 10 -13 20 -51 24 -95 12 -132 45 -360 72
-497 25 -121 27 -154 25 -317 -3 -248 23 -373 79 -373 12 0 53 31 97 73 128
122 195 160 392 227 69 23 132 48 141 56 15 13 23 13 72 -4 30 -10 80 -34 112
-53 81 -49 224 -199 263 -277 l31 -64 -19 -36 c-27 -50 -26 -132 1 -190 l21
-43 -35 -72 c-23 -47 -28 -63 -15 -47 12 14 35 54 52 90 28 59 31 74 31 160 0
91 -2 100 -39 175 -33 67 -58 99 -155 195 -170 170 -271 216 -450 208 -77 -3
-109 -10 -161 -32 -36 -16 -73 -29 -82 -29 -9 -1 -15 -3 -13 -6 9 -8 -35 -32
-47 -25 -7 4 -8 3 -4 -4 7 -12 -61 -52 -89 -52 -26 0 -48 68 -49 152 0 43 -3
72 -5 65 -6 -16 -40 205 -48 311 -5 77 -5 82 14 82 24 0 105 -59 97 -71 -3 -5
-2 -8 3 -7 16 5 54 -23 47 -35 -4 -7 -4 -9 1 -5 10 9 47 -10 41 -21 -3 -4 0
-8 7 -8 23 -1 117 -60 110 -68 -5 -4 -2 -5 4 -1 7 4 36 0 65 -9 66 -19 187
-19 263 0 106 28 172 71 296 195 97 96 122 128 155 194 37 76 39 85 39 175 0
87 -3 102 -31 161 -17 36 -40 76 -52 90 -13 16 -8 0 15 -47 l36 -72 -22 -50
c-26 -62 -27 -125 -1 -176 l20 -40 -32 -65 c-21 -44 -60 -94 -119 -155 -93
-96 -167 -147 -255 -177 -48 -16 -57 -17 -77 -4 -12 8 -58 27 -101 41 -317
106 -418 214 -506 540 -12 44 -31 89 -41 101 -19 20 -19 21 17 80 19 32 45 69
56 82 12 12 19 22 17 22 -3 0 -19 -15 -36 -32z"/>
<path d="M5350 3476 c0 -2 8 -10 18 -17 15 -13 16 -12 3 4 -13 16 -21 21 -21
13z"/>
<path d="M4843 3241 c-65 -18 -84 -83 -37 -120 56 -44 154 -13 154 48 0 48
-64 87 -117 72z m60 -20 c49 -19 47 -80 -4 -101 -26 -11 -36 -10 -65 4 -31 14
-35 20 -32 48 4 47 49 68 101 49z"/>
<path d="M4368 2793 c7 -3 16 -2 19 1 4 3 -2 6 -13 5 -11 0 -14 -3 -6 -6z"/>
<path d="M4352 2750 c0 -19 2 -27 5 -17 2 9 2 25 0 35 -3 9 -5 1 -5 -18z"/>
<path d="M1750 2496 c0 -2 8 -10 18 -17 15 -13 16 -12 3 4 -13 16 -21 21 -21
13z"/>
<path d="M3991 2334 c0 -11 3 -14 6 -6 3 7 2 16 -1 19 -3 4 -6 -2 -5 -13z"/>
<path d="M4003 2175 c0 -27 2 -38 4 -22 2 15 2 37 0 50 -2 12 -4 0 -4 -28z"/>
<path d="M3442 2045 c-2 -157 -28 -351 -66 -501 -27 -107 -88 -290 -113 -337
-8 -16 -13 -31 -10 -33 5 -6 62 118 95 209 l27 75 0 -88 c0 -74 3 -93 21 -116
11 -15 25 -29 31 -31 14 -5 68 144 106 295 33 133 33 134 -21 148 -41 11 -88
-52 -113 -150 -20 -81 -20 -43 1 51 33 150 51 337 48 483 l-4 135 -2 -140z"/>
<path d="M3831 2164 c0 -11 3 -14 6 -6 3 7 2 16 -1 19 -3 4 -6 -2 -5 -13z"/>
<path d="M3992 2025 c0 -16 2 -22 5 -12 2 9 2 23 0 30 -3 6 -5 -1 -5 -18z"/>
<path d="M3833 1945 c0 -22 2 -30 4 -17 2 12 2 30 0 40 -3 9 -5 -1 -4 -23z"/>
<path d="M3982 1920 c0 -14 2 -19 5 -12 2 6 2 18 0 25 -3 6 -5 1 -5 -13z"/>
<path d="M3823 1825 c0 -22 2 -30 4 -17 2 12 2 30 0 40 -3 9 -5 -1 -4 -23z"/>
<path d="M3972 1840 c0 -14 2 -19 5 -12 2 6 2 18 0 25 -3 6 -5 1 -5 -13z"/>
<path d="M4806 1839 c-55 -44 -17 -119 61 -119 52 0 93 31 93 70 0 38 -41 70
-90 70 -23 0 -48 -8 -64 -21z m98 -1 c48 -21 46 -77 -4 -98 -33 -14 -78 -3
-93 22 -15 22 -1 63 25 76 30 14 42 14 72 0z"/>
<path d="M3961 1774 c0 -11 3 -14 6 -6 3 7 2 16 -1 19 -3 4 -6 -2 -5 -13z"/>
<path d="M3808 1745 c-20 -155 -103 -483 -158 -626 -12 -33 -15 -47 -6 -36 11
14 15 15 20 5 3 -7 3 -2 0 11 -4 14 -2 21 4 17 26 -16 164 585 150 651 -3 10
-7 0 -10 -22z"/>
<path d="M3952 1720 c0 -14 2 -19 5 -12 2 6 2 18 0 25 -3 6 -5 1 -5 -13z"/>
<path d="M4226 1708 c-34 -30 -40 -43 -72 -168 -40 -157 -81 -286 -136 -424
-21 -54 -37 -100 -35 -102 6 -6 88 24 126 47 18 11 35 18 37 17 2 -2 -16 -52
-40 -112 -24 -59 -40 -104 -36 -99 15 14 126 274 170 395 24 65 46 115 51 113
4 -3 5 3 2 14 -3 10 6 30 20 46 33 39 54 31 164 -57 50 -40 106 -81 125 -91
31 -17 32 -17 8 0 -63 45 -138 125 -144 154 -9 45 -100 230 -131 267 -34 41
-62 41 -109 0z"/>
<path d="M3917 1584 c-34 -130 -84 -266 -147 -401 -27 -57 -46 -103 -42 -103
3 0 -3 -7 -14 -16 -10 -8 -13 -12 -5 -8 11 5 12 1 7 -20 -12 -50 2 -25 58 100
67 147 108 255 142 374 22 76 41 180 32 180 -2 0 -16 -48 -31 -106z"/>
<path d="M5354 1488 l-19 -23 23 19 c21 18 27 26 19 26 -2 0 -12 -10 -23 -22z"/>
<path d="M3640 955 c-10 -12 -15 -13 -20 -4 -5 7 -12 -3 -20 -25 -17 -54 -7
-54 30 -2 30 45 36 62 10 31z"/>
</g>
</svg>
